<svg width="25" height="25" viewBox="0 0 25 25" fill="none" xmlns="http://www.w3.org/2000/svg">
<path d="M15.0577 11.6539C15.7162 11.6539 16.25 11.1201 16.25 10.4616C16.25 9.8031 15.7162 9.26929 15.0577 9.26929C14.3992 9.26929 13.8654 9.8031 13.8654 10.4616C13.8654 11.1201 14.3992 11.6539 15.0577 11.6539Z" fill="#D7D9DF"/>
<path d="M13.2692 16.4231C15.5739 16.4231 17.4423 14.5547 17.4423 12.25C17.4423 9.94525 15.5739 8.0769 13.2692 8.0769C10.9645 8.0769 9.09613 9.94525 9.09613 12.25C9.09613 14.5547 10.9645 16.4231 13.2692 16.4231Z" stroke="#D7D9DF" stroke-width="1.5" stroke-linecap="round" stroke-linejoin="round"/>
<path d="M0.75 12.25C0.75 12.25 4.90179 4.5 12.375 4.5C19.8482 4.5 24 12.25 24 12.25C24 12.25 19.8482 20 12.375 20C4.90179 20 0.75 12.25 0.75 12.25Z" stroke="#D7D9DF" stroke-width="1.5" stroke-linecap="round" stroke-linejoin="round"/>
</svg>
